name ../VV_Laxity/vv_15.mot
datacolumns  10
datarows 46
range   14.00000000 14.45000000
cursor 1.0 1.0 0.0
keys m_key
wrap
enforce_loops no
enforce_constraints no
calc_derivatives -1.000000
event_color 0.000000 0.000000 0.000000
endheader
            time femur_r_force_vx femur_r_force_vy femur_r_force_vz femur_r_force_px femur_r_force_py femur_r_force_pz femur_r_torque_x femur_r_torque_y femur_r_torque_z 
     14.00000000       0.00000000       0.00000000       0.00000000      -0.02255621      -0.51082145       0.00000000      -0.21456687       0.05749302       0.00000000 
     14.01000000       0.00000000       0.00000000       0.00000000      -0.02255621      -0.51082145       0.00000000      -0.20752549       0.05560629       0.00000000 
     14.02000000       0.00000000       0.00000000       0.00000000      -0.02255621      -0.51082145       0.00000000      -0.20059904       0.05375035       0.00000000 
     14.03000000       0.00000000       0.00000000       0.00000000      -0.02255621      -0.51082145       0.00000000      -0.19378770       0.05192526       0.00000000 
     14.04000000       0.00000000       0.00000000       0.00000000      -0.02255621      -0.51082145       0.00000000      -0.18709164       0.05013105       0.00000000 
     14.05000000       0.00000000       0.00000000       0.00000000      -0.02255621      -0.51082145       0.00000000      -0.18051103       0.04836778       0.00000000 
     14.06000000       0.00000000       0.00000000       0.00000000      -0.02255621      -0.51082145       0.00000000      -0.17404602       0.04663549       0.00000000 
     14.07000000       0.00000000       0.00000000       0.00000000      -0.02255621      -0.51082145       0.00000000      -0.16769678       0.04493422       0.00000000 
     14.08000000       0.00000000       0.00000000       0.00000000      -0.02255621      -0.51082145       0.00000000      -0.16146347       0.04326401       0.00000000 
     14.09000000       0.00000000       0.00000000       0.00000000      -0.02255621      -0.51082145       0.00000000      -0.15534624       0.04162490       0.00000000 
     14.10000000       0.00000000       0.00000000       0.00000000      -0.02255621      -0.51082145       0.00000000      -0.14934524       0.04001694       0.00000000 
     14.11000000       0.00000000       0.00000000       0.00000000      -0.02255621      -0.51082145       0.00000000      -0.14346063       0.03844016       0.00000000 
     14.12000000       0.00000000       0.00000000       0.00000000      -0.02255621      -0.51082145       0.00000000      -0.13769254       0.03689461       0.00000000 
     14.13000000       0.00000000       0.00000000       0.00000000      -0.02255621      -0.51082145       0.00000000      -0.13204113       0.03538031       0.00000000 
     14.14000000       0.00000000       0.00000000       0.00000000      -0.02255621      -0.51082145       0.00000000      -0.12650653       0.03389732       0.00000000 
     14.15000000       0.00000000       0.00000000       0.00000000      -0.02255621      -0.51082145       0.00000000      -0.12108889       0.03244567       0.00000000 
     14.16000000       0.00000000       0.00000000       0.00000000      -0.02255621      -0.51082145       0.00000000      -0.11578832       0.03102539       0.00000000 
     14.17000000       0.00000000       0.00000000       0.00000000      -0.02255621      -0.51082145       0.00000000      -0.11060498       0.02963652       0.00000000 
     14.18000000       0.00000000       0.00000000       0.00000000      -0.02255621      -0.51082145       0.00000000      -0.10553898       0.02827909       0.00000000 
     14.19000000       0.00000000       0.00000000       0.00000000      -0.02255621      -0.51082145       0.00000000      -0.10059046       0.02695313       0.00000000 
     14.20000000       0.00000000       0.00000000       0.00000000      -0.02255621      -0.51082145       0.00000000      -0.09575953       0.02565869       0.00000000 
     14.21000000       0.00000000       0.00000000       0.00000000      -0.02255621      -0.51082145       0.00000000      -0.09104632       0.02439579       0.00000000 
     14.22000000       0.00000000       0.00000000       0.00000000      -0.02255621      -0.51082145       0.00000000      -0.08645094       0.02316446       0.00000000 
     14.23000000       0.00000000       0.00000000       0.00000000      -0.02255621      -0.51082145       0.00000000      -0.08197350       0.02196473       0.00000000 
     14.24000000       0.00000000       0.00000000       0.00000000      -0.02255621      -0.51082145       0.00000000      -0.07761413       0.02079664       0.00000000 
     14.25000000       0.00000000       0.00000000       0.00000000      -0.02255621      -0.51082145       0.00000000      -0.07337292       0.01966021       0.00000000 
     14.26000000       0.00000000       0.00000000       0.00000000      -0.02255621      -0.51082145       0.00000000      -0.06924998       0.01855548       0.00000000 
     14.27000000       0.00000000       0.00000000       0.00000000      -0.02255621      -0.51082145       0.00000000      -0.06524542       0.01748246       0.00000000 
     14.28000000       0.00000000       0.00000000       0.00000000      -0.02255621      -0.51082145       0.00000000      -0.06135933       0.01644118       0.00000000 
     14.29000000       0.00000000       0.00000000       0.00000000      -0.02255621      -0.51082145       0.00000000      -0.05759182       0.01543168       0.00000000 
     14.30000000       0.00000000       0.00000000       0.00000000      -0.02255621      -0.51082145       0.00000000      -0.05394297       0.01445397       0.00000000 
     14.31000000       0.00000000       0.00000000       0.00000000      -0.02255621      -0.51082145       0.00000000      -0.05041287       0.01350809       0.00000000 
     14.32000000       0.00000000       0.00000000       0.00000000      -0.02255621      -0.51082145       0.00000000      -0.04700162       0.01259405       0.00000000 
     14.33000000       0.00000000       0.00000000       0.00000000      -0.02255621      -0.51082145       0.00000000      -0.04370929       0.01171187       0.00000000 
     14.34000000       0.00000000       0.00000000       0.00000000      -0.02255621      -0.51082145       0.00000000      -0.04053598       0.01086158       0.00000000 
     14.35000000       0.00000000       0.00000000       0.00000000      -0.02255621      -0.51082145       0.00000000      -0.03748175       0.01004321       0.00000000 
     14.36000000       0.00000000       0.00000000       0.00000000      -0.02255621      -0.51082145       0.00000000      -0.03454669       0.00925676       0.00000000 
     14.37000000       0.00000000       0.00000000       0.00000000      -0.02255621      -0.51082145       0.00000000      -0.03173087       0.00850226       0.00000000 
     14.38000000       0.00000000       0.00000000       0.00000000      -0.02255621      -0.51082145       0.00000000      -0.02903435       0.00777973       0.00000000 
     14.39000000       0.00000000       0.00000000       0.00000000      -0.02255621      -0.51082145       0.00000000      -0.02645721       0.00708919       0.00000000 
     14.40000000       0.00000000       0.00000000       0.00000000      -0.02255621      -0.51082145       0.00000000      -0.02399951       0.00643065       0.00000000 
     14.41000000       0.00000000       0.00000000       0.00000000      -0.02255621      -0.51082145       0.00000000      -0.02166131       0.00580413       0.00000000 
     14.42000000       0.00000000       0.00000000       0.00000000      -0.02255621      -0.51082145       0.00000000      -0.01944267       0.00520965       0.00000000 
     14.43000000       0.00000000       0.00000000       0.00000000      -0.02255621      -0.51082145       0.00000000      -0.01734364       0.00464721       0.00000000 
     14.44000000       0.00000000       0.00000000       0.00000000      -0.02255621      -0.51082145       0.00000000      -0.01536427       0.00411684       0.00000000 
     14.45000000       0.00000000       0.00000000       0.00000000      -0.02255621      -0.51082145       0.00000000      -0.01350462       0.00361855       0.00000000 
